<svg xmlns="http://www.w3.org/2000/svg" viewBox="0 0 1000 1000"><defs><style>.cls-1{fill:#8cc1c2;}.cls-2,.cls-4{fill:none;}.cls-2{stroke:#fdffff;stroke-linecap:round;stroke-width:10px;stroke-dasharray:0 40.25;}.cls-2,.cls-3,.cls-4{stroke-miterlimit:10;}.cls-3{fill:#fff;stroke:#4a4a49;}.cls-4{stroke:#1d1d1b;}.cls-5{fill:#4c9455;}.cls-6{fill:#644380;}.cls-7{fill:#3f989a;}</style></defs><g id="iconography-1"><circle class="cls-1" cx="500" cy="486" r="350"/><circle class="cls-2" cx="501.33" cy="486" r="326.67"/><rect class="cls-3" x="365.33" y="277" width="389.33" height="513.33" rx="12"/><rect class="cls-3" x="381.92" y="297.43" width="357.33" height="471.14" rx="12"/><line class="cls-4" x1="641.25" y1="533.21" x2="431.59" y2="533.21"/><circle class="cls-5" cx="449.59" cy="362.93" r="17.93"/><circle class="cls-6" cx="449.59" cy="704.52" r="17.93"/><line class="cls-4" x1="689.51" y1="363.21" x2="479.84" y2="363.21"/><line class="cls-4" x1="689.51" y1="705.21" x2="479.84" y2="705.21"/><circle class="cls-7" cx="671.58" cy="533.52" r="17.93"/><line class="cls-4" x1="689.51" y1="448.07" x2="431.67" y2="448.07"/><line class="cls-4" x1="689.51" y1="619.07" x2="431.67" y2="619.07"/><path class="cls-3" d="M477,290.5a38,38,0,0,1-38,38H325a38,38,0,1,1,20.11-70.25,38,38,0,0,1,74.83-.64A38,38,0,0,1,477,290.5Z"/><path class="cls-5" d="M774.71,615.24l17.52-17.53a39,39,0,1,1-17.44-17.91L757,597.56a12,12,0,0,0,0,17l.71.71A12,12,0,0,0,774.71,615.24Z"/><rect class="cls-5" x="543.46" y="694.31" width="244" height="25" rx="12" transform="translate(-304.88 677.57) rotate(-45)"/></g></svg>