<svg xmlns="http://www.w3.org/2000/svg" viewBox="0 0 1000 1000"><defs><style>.cls-1{fill:#8cc1c2;}.cls-2{fill:none;stroke:#fdffff;stroke-linecap:round;stroke-width:10px;stroke-dasharray:0 40.25;}.cls-2,.cls-3{stroke-miterlimit:10;}.cls-3{fill:#fff;stroke:#4a4a49;}.cls-4{fill:#4a4a49;}.cls-5{fill:#4c9455;}.cls-6{fill:#3f989a;}.cls-7{fill:#644380;}</style></defs><g id="iconography-1"><circle class="cls-1" cx="501.5" cy="500" r="350"/><circle class="cls-2" cx="502.83" cy="500" r="326.67"/><rect class="cls-3" x="366.83" y="291" width="389.33" height="513.33" rx="12"/><rect class="cls-3" x="383.5" y="311.43" width="357.33" height="471.14" rx="12"/><path class="cls-4" d="M563,383c-74.71,0-135.5,60.79-135.5,135.5v.5h1v-.5C428.5,444.34,488.84,384,563,384s134.5,60.34,134.5,134.5v.5h1v-.5C698.5,443.79,637.71,383,563,383Z"/><circle class="cls-5" cx="562.94" cy="382.93" r="17.93"/><circle class="cls-6" cx="427.01" cy="518.52" r="17.93"/><circle class="cls-7" cx="698.01" cy="518.52" r="17.93"/><path class="cls-5" d="M665.47,589.57l-17.75,6.65-12.18,4.55h0L632.28,602l-23.49,8.79,8.79-23.49.95-2.56,4.82-12.88L630,554.1l54.67-20.45-32.1,32.09a7.81,7.81,0,1,0,1.39,1.44l31.78-31.78Z"/><rect class="cls-5" x="605.44" y="582.04" width="50" height="15" rx="6" transform="translate(601.52 -273.12) rotate(45)"/><rect class="cls-5" x="486.12" y="635.58" width="171.57" height="25" rx="12" transform="translate(-290.76 594.21) rotate(-45)"/><path class="cls-3" d="M441.39,303.72h-9.58a49.76,49.76,0,0,0-9.12-22.14l6.73-6.73a3.81,3.81,0,0,0,0-5.38l-5.22-5.23a3.81,3.81,0,0,0-5.38,0L412.11,271a49.65,49.65,0,0,0-22.28-9.25v-9.31a3.82,3.82,0,0,0-3.81-3.81h-7.39a3.81,3.81,0,0,0-3.8,3.81v9.32a49.69,49.69,0,0,0-22.4,9.37l-6.75-6.75a3.81,3.81,0,0,0-5.38,0l-5.23,5.23a3.81,3.81,0,0,0,0,5.38l6.82,6.82a49.75,49.75,0,0,0-9,22H323a3.82,3.82,0,0,0-3.81,3.81v7.39a3.81,3.81,0,0,0,3.81,3.8h9.93a49.7,49.7,0,0,0,9.23,22.17L335.1,348a3.81,3.81,0,0,0,0,5.38l5.23,5.22a3.81,3.81,0,0,0,5.38,0l7.09-7.09a49.63,49.63,0,0,0,22,9.1v10.2a3.81,3.81,0,0,0,3.8,3.81H386a3.82,3.82,0,0,0,3.81-3.81V360.58a49.58,49.58,0,0,0,21.9-9l7.06,7.06a3.81,3.81,0,0,0,5.38,0l5.22-5.22a3.83,3.83,0,0,0,0-5.39l-7-7a49.51,49.51,0,0,0,9.37-22.34h9.61a3.81,3.81,0,0,0,3.81-3.8v-7.39A3.82,3.82,0,0,0,441.39,303.72Zm-23.85,15a35.77,35.77,0,0,1-5.13,12.34,36,36,0,0,1-37.58,15.47,36,36,0,0,1-27.77-27.81,36.45,36.45,0,0,1,0-15,35.64,35.64,0,0,1,4.9-11.85,36,36,0,0,1,60.52-.12,35.62,35.62,0,0,1,5,12,36.45,36.45,0,0,1,0,15Z"/></g></svg>