<svg xmlns="http://www.w3.org/2000/svg" viewBox="0 0 1000 1000"><defs><style>.cls-1{fill:#8cc1c2;}.cls-2,.cls-7{fill:none;}.cls-2{stroke:#fdffff;stroke-linecap:round;stroke-width:10px;stroke-dasharray:0 40.25;}.cls-2,.cls-3,.cls-7{stroke-miterlimit:10;}.cls-3,.cls-8{fill:#fff;}.cls-3{stroke:#4a4a49;}.cls-4{fill:#4c9455;}.cls-5{fill:#3f989a;}.cls-6{fill:#644380;}.cls-7{stroke:#1d1d1b;}.cls-9{fill:#1d1d1b;}</style></defs><g id="iconography-1"><circle class="cls-1" cx="469" cy="500" r="350"/><circle class="cls-2" cx="470.33" cy="500" r="326.67"/><path class="cls-3" d="M623.5,249.5v76a12,12,0,0,1-12,12H594.3a12,12,0,0,0,12-12v-58a12,12,0,0,0-12-12H462.5a12,12,0,0,0-12,12v58a12,12,0,0,0,12,12h-17a12,12,0,0,1-12-12v-76a12,12,0,0,1,12-12h166A12,12,0,0,1,623.5,249.5Z"/><rect class="cls-3" x="334.33" y="291" width="389.33" height="513.33" rx="12"/><rect class="cls-3" x="351" y="311.43" width="357.33" height="471.14" rx="12"/><circle class="cls-4" cx="615.44" cy="447.93" r="17.93"/><circle class="cls-5" cx="446.51" cy="486.52" r="17.93"/><circle class="cls-6" cx="529.51" cy="593.52" r="17.93"/><polyline class="cls-7" points="350.5 562.5 443.75 514.76 529.64 562.76 615.34 478.76 708.25 562.76"/><rect class="cls-4" x="497.9" y="729.21" width="244" height="25" rx="12" transform="translate(-342.91 655.58) rotate(-45)"/><circle class="cls-4" cx="708" cy="653" r="50"/><path class="cls-1" d="M749.25,653A41.16,41.16,0,0,1,733,685.81V620.19A41.16,41.16,0,0,1,749.25,653Z"/><path class="cls-8" d="M733,620.19v65.62c-1,.74-2,1.44-3,2.09a41.38,41.38,0,0,1-29.5,5.67l-3-.67a41.26,41.26,0,0,1,0-79.8c1-.26,2-.48,3-.67A41.38,41.38,0,0,1,730,618.1C731,618.75,732,619.45,733,620.19Z"/><path class="cls-9" d="M700.5,693.57V612.43c-1,.19-2,.41-3,.67v79.8Z"/><path class="cls-9" d="M733,620.19v65.62c-1,.74-2,1.44-3,2.09V618.1C731,618.75,732,619.45,733,620.19Z"/></g></svg>