<svg xmlns="http://www.w3.org/2000/svg" viewBox="0 0 1000 1000"><defs><style>.cls-1{fill:#8cc1c2;}.cls-2,.cls-4{fill:none;}.cls-2{stroke:#fdffff;stroke-linecap:round;stroke-width:10px;stroke-dasharray:0 40.25;}.cls-2,.cls-3,.cls-4{stroke-miterlimit:10;}.cls-3{fill:#fff;stroke:#4a4a49;}.cls-4{stroke:#1d1d1b;}.cls-5{fill:#3f989a;}.cls-6{fill:#4c9455;}.cls-7{fill:#644380;}</style></defs><g id="iconography-1"><circle class="cls-1" cx="496" cy="500.5" r="350"/><circle class="cls-2" cx="497.33" cy="500.5" r="326.67"/><rect class="cls-3" x="361.33" y="291.5" width="389.33" height="513.33" rx="12"/><rect class="cls-3" x="377.92" y="311.93" width="357.33" height="471.14" rx="12"/><line class="cls-4" x1="556.34" y1="515.52" x2="556.34" y2="725.18"/><circle class="cls-5" cx="556.64" cy="485.27" r="17.93"/><line class="cls-4" x1="471.2" y1="467.34" x2="471.2" y2="725.18"/><line class="cls-4" x1="642.2" y1="428.58" x2="642.2" y2="725.18"/><circle class="cls-6" cx="642.34" cy="401.27" r="17.93"/><circle class="cls-7" cx="470.75" cy="437.27" r="17.93"/><polygon class="cls-6" points="378.87 311.51 367.06 444.99 360.88 418.87 350.13 443.49 361.94 310.01 378.87 311.51"/><polygon class="cls-6" points="391.03 309.96 408.82 442.78 397.05 418.66 391.97 445.04 374.18 312.22 391.03 309.96"/><circle class="cls-3" cx="377.5" cy="313.77" r="50"/><polygon class="cls-6" points="378 331.45 356.37 347.43 364.88 321.92 343 306.28 369.89 306.49 378 280.85 386.11 306.49 413 306.28 391.13 321.92 399.63 347.43 378 331.45"/></g></svg>