<svg xmlns="http://www.w3.org/2000/svg" viewBox="0 0 1000 1000"><defs><style>.cls-1{fill:#8cc1c2;}.cls-2,.cls-4,.cls-8{fill:none;}.cls-2{stroke:#fdffff;stroke-linecap:round;stroke-width:10px;stroke-dasharray:0 40.25;}.cls-2,.cls-3,.cls-4,.cls-8{stroke-miterlimit:10;}.cls-3{fill:#fff;stroke:#4a4a49;}.cls-4{stroke:#1d1d1b;}.cls-5{fill:#4c9455;}.cls-6{fill:#3f989a;}.cls-7{fill:#644380;}.cls-8{stroke:#4c9455;stroke-width:7px;}</style></defs><g id="iconography-1"><circle class="cls-1" cx="500" cy="486" r="350"/><circle class="cls-2" cx="501.33" cy="486" r="326.67"/><rect class="cls-3" x="365.33" y="277" width="389.33" height="513.33" rx="12"/><rect class="cls-3" x="382" y="297.43" width="357.33" height="471.14" rx="12"/><path class="cls-3" d="M655.33,280.33v12a16,16,0,0,1-16,16H480.67a16,16,0,0,1-16-16v-12a16,16,0,0,1,16-16h46.66v-2.66a16,16,0,0,1,16-16h37.34a16,16,0,0,1,16,16v2.66h42.66A16,16,0,0,1,655.33,280.33Z"/><polyline class="cls-4" points="660 390.33 468.34 390.33 468.34 534.21 468.34 678.09 660 678.09"/><line class="cls-4" x1="678" y1="534.21" x2="468.34" y2="534.21"/><circle class="cls-5" cx="660.44" cy="390.93" r="17.93"/><circle class="cls-6" cx="672.51" cy="533.52" r="17.93"/><circle class="cls-7" cx="660.51" cy="677.52" r="17.93"/><circle class="cls-1" cx="468.67" cy="533.67" r="27.33"/><polyline class="cls-8" points="437.33 514.3 468.51 546.33 499.91 485.67"/></g></svg>