<?xml version="1.0" encoding="UTF-8"?>
<svg width="512pt" height="512pt" version="1.1" viewBox="0 0 512 512" xmlns="http://www.w3.org/2000/svg">
 <g>
  <rect width="512" height="512" fill="#fff"/>
  <path d="m256 132.51c4.1914 0 7.7383-3.5469 7.7383-7.7383v-14.188c0-4.1914-3.5469-7.7383-7.7383-7.7383s-7.7383 3.5469-7.7383 7.7383v14.188c0 4.1914 3.5469 7.7383 7.7383 7.7383z" fill="#3e979a"/>
  <path d="m224.08 134.44c1.2891 2.5781 3.8711 4.1914 6.7695 4.1914 1.2891 0 2.5781-0.32422 3.5469-0.96875 1.9336-0.96875 3.2227-2.5781 3.8711-4.5156 0.64453-1.9336 0.32422-4.1914-0.64453-5.8047l-6.4492-12.254c-0.96875-1.9336-2.5781-3.2227-4.5156-3.8711-1.9336-0.64453-4.1914-0.32422-5.8047 0.64453-1.9336 0.96875-3.2227 2.5781-3.8711 4.5156-0.64453 1.9336-0.32422 4.1914 0.64453 5.8047z" fill="#3e979a"/>
  <path d="m277.28 137.66c0.96875 0.64453 2.2578 0.96875 3.5469 0.96875 2.9023 0 5.4805-1.6133 6.7695-4.1914l6.4492-12.254c0.96875-1.9336 1.2891-3.8711 0.64453-5.8047-0.64453-1.9336-1.9336-3.5469-3.8711-4.5156-1.6094-1.2852-3.543-1.2852-5.8008-0.96484-1.9336 0.64453-3.5469 1.9336-4.5156 3.8711l-6.4492 12.254c-0.96875 1.9336-1.2891 3.8711-0.64453 5.8047 0.64844 2.2539 1.9375 3.8672 3.8711 4.832z" fill="#3e979a"/>
  <path d="m342.73 172.17c-5.4805-4.8359-13.863-4.1914-18.703 1.2891l-40.625 46.109c-3.2227 3.8711-8.3828 6.125-13.543 6.125h-27.73c-5.1602 0-9.9961-2.2578-13.543-6.125l-40.625-46.109c-4.8359-5.4805-13.219-6.125-18.703-1.2891-5.4805 4.8359-6.125 13.219-1.2891 18.703l51.914 59.008v145.74c0 7.418 6.125 13.219 13.219 13.219 7.418 0 13.219-6.125 13.219-13.219l0.003906-70.941c0-1.9336 1.6133-3.5469 3.5469-3.5469h11.93c1.9336 0 3.5469 1.6133 3.5469 3.5469v71.258c0 7.418 6.125 13.219 13.219 13.219 7.418 0 13.219-6.125 13.219-13.219v-146.06l51.914-59.008c5.4805-5.4805 4.8359-13.863-0.96875-18.699z" fill="#3e979a"/>
  <path d="m288.57 180.87c0 17.988-14.582 32.566-32.566 32.566s-32.566-14.578-32.566-32.566c0-17.984 14.582-32.566 32.566-32.566s32.566 14.582 32.566 32.566" fill="#3e979a"/>
 </g>
</svg>
