<?xml version="1.0" encoding="UTF-8"?>
<svg width="512pt" height="512pt" version="1.1" viewBox="0 0 512 512" xmlns="http://www.w3.org/2000/svg">
 <g>
  <rect width="512" height="512" fill="#fff"/>
  <path d="m250.91 339.82h8.0625v32.293h-8.0625z" fill="#3e979a"/>
  <path d="m210.52 326.78 6.9727 4.043-16.195 27.934-6.9727-4.043z" fill="#3e979a"/>
  <path d="m158.42 197.73 27.949 16.176-4.0391 6.9766-27.949-16.176z" fill="#3e979a"/>
  <path d="m201.57 157.59 16.125 27.973-6.9844 4.0273-16.125-27.973z" fill="#3e979a"/>
  <path d="m351.56 197.89 4.0273 6.9844-27.973 16.129-4.0273-6.9844z" fill="#3e979a"/>
  <path d="m299.18 326.92 16.125 27.977-6.9844 4.0273-16.125-27.977z" fill="#3e979a"/>
  <path d="m327.59 295.59 27.961 16.156-4.0312 6.9805-27.961-16.156z" fill="#3e979a"/>
  <path d="m141.08 254.22h32.293v8.0625h-32.293z" fill="#3e979a"/>
  <path d="m336.51 254.22h32.293v8.0625h-32.293z" fill="#3e979a"/>
  <path d="m181.36 295.04 4.0078 7-28.031 16.055-4.0078-7z" fill="#3e979a"/>
  <path d="m254.94 119.4c-76.559 0-138.85 62.285-138.85 138.85s62.285 138.85 138.85 138.85c76.566 0 138.86-62.285 138.86-138.85 0-76.559-62.289-138.85-138.86-138.85zm0 258.36c-65.895 0-119.5-53.609-119.5-119.5 0-64.543 51.441-117.26 115.47-119.4v119.4c0 1.8203 1.2227 3.4219 2.9844 3.8906 0.34766 0.09375 0.69922 0.13672 1.0469 0.13672 1.4141 0 2.7539-0.74219 3.4883-2.0078l59.875-103.27c33.688 21.16 56.145 58.621 56.145 101.25 0 65.895-53.609 119.5-119.51 119.5z" fill="#3e979a"/>
 </g>
</svg>
