<?xml version="1.0" encoding="UTF-8"?>
<svg width="512pt" height="512pt" version="1.1" viewBox="0 0 512 512" xmlns="http://www.w3.org/2000/svg">
 <g>
  <rect width="512" height="512" fill="#fff"/>
  <path d="m167.63 115.94-51.59 51.59c-1.2227 1.207-1.9297 2.918-1.9141 4.6367v219.26c0 3.375 3.0742 6.4492 6.4492 6.4492h206.36c3.375 0 6.4492-3.0742 6.4492-6.4492v-65.695l12.695-9.2695c1.2383-0.90234 2.082-1.6406 2.8203-2.9219l48.062-83.332c0.58984-1.0234 0.91016-2.0547 0.91016-3.2266 0-2.2148-1.3789-4.5586-3.3281-5.6406l-29.02-16.121c-1.125-0.63672-2.4414-0.92188-3.7266-0.80859-2.0312 0.21094-3.9258 1.4492-4.9375 3.2227l-23.477 40.711v-127.77c0-3.3789-3.0742-6.4492-6.4492-6.4492h-154.77c-1.8047 0-3.5312 0.80859-4.5352 1.8125zm10.98 11.082h141.88v143.69l-11.488 19.953c-0.75 1.3047-1.1914 2.5273-1.4102 3.9297l-6.3477 41.008c-0.36328 2.4961 0.89062 5.1484 3.0469 6.4531 2.1562 1.3047 5.0898 1.1758 7.1289-0.30469l9.0703-6.5508v49.777h-193.46v-206.36h45.145c3.375 0 6.4492-3.0742 6.4492-6.4492zm-12.895 9.0703v29.625h-29.625zm37.887 35.973c-1.4102 0.20312-2.7422 0.88672-3.7266 1.9141l-34.16 34.156-14.812-14.809c-2.3828-2.4531-6.8047-2.4688-9.2109-0.039063-2.4023 2.4297-2.3359 6.8516 0.14063 9.207l19.348 19.348c2.3828 2.3555 6.6836 2.3555 9.0703 0l38.691-38.691c1.9844-1.8633 2.5742-5.0508 1.3945-7.5-1.1797-2.4531-4.043-3.9766-6.7344-3.5859zm19.547 29.121c-3.3789 0.15625-6.3047 3.375-6.1484 6.75 0.16016 3.375 3.375 6.3047 6.7539 6.1445h77.387c3.4062 0.046875 6.5391-3.043 6.5391-6.4492s-3.1328-6.4961-6.5391-6.4492h-77.387c-0.20312-0.007813-0.40234-0.007813-0.60547 0zm141.67 18.34 17.734 9.9766-6.5508 11.285-17.734-9.875zm-161.22 17.027c-1.4102 0.20312-2.7422 0.88672-3.7266 1.9141l-34.16 34.156-14.812-14.812c-2.3828-2.4531-6.8047-2.4688-9.2109-0.039062-2.4023 2.4297-2.3359 6.8516 0.14063 9.207l19.348 19.348c2.3828 2.3555 6.6836 2.3555 9.0703 0l38.691-38.691c1.9844-1.8633 2.5742-5.0508 1.3945-7.5-1.1797-2.4531-4.043-3.9727-6.7344-3.582zm148.22 5.543 17.734 9.875-28.922 50.176-17.734-9.9766zm-128.68 23.574c-3.3789 0.15625-6.3047 3.375-6.1484 6.75 0.16016 3.3789 3.375 6.3086 6.7539 6.1484h77.387c3.4062 0.046876 6.5391-3.043 6.5391-6.4492s-3.1328-6.4961-6.5391-6.4492h-77.387c-0.20312-0.007813-0.40234-0.007813-0.60547 0zm-19.547 35.367c-1.4102 0.20313-2.7422 0.88672-3.7266 1.9141l-34.16 34.16-14.812-14.812c-2.3828-2.4531-6.8047-2.4688-9.2109-0.039062-2.4023 2.4297-2.3359 6.8516 0.14063 9.207l19.348 19.348c2.3828 2.3555 6.6836 2.3555 9.0703 0l38.691-38.691c1.9844-1.8633 2.5742-5.0508 1.3945-7.5-1.1797-2.4531-4.043-3.9727-6.7344-3.5859zm115.37 3.7266 12.09 6.75-14.812 10.781zm-95.824 25.395c-3.3789 0.15625-6.3047 3.375-6.1484 6.75 0.16016 3.3789 3.375 6.3086 6.7539 6.1484h54.816c3.4062 0.046875 6.5391-3.043 6.5391-6.4492s-3.1328-6.4961-6.5391-6.4492h-54.816c-0.20312-0.007812-0.40234-0.007812-0.60547 0z" fill="#3e979a"/>
 </g>
</svg>
