<?xml version="1.0" encoding="UTF-8"?>
<svg width="512pt" height="512pt" version="1.1" viewBox="0 0 512 512" xmlns="http://www.w3.org/2000/svg">
 <g>
  <rect width="512" height="512" fill="#fff"/>
  <path d="m405.67 378.39-20.152-20.152c-1.4453-1.4453-3.6055-1.875-5.4922-1.0938-1.8789 0.78125-3.1094 2.6211-3.1094 4.6562v5.0391h-35.547c30.871-24.961 50.66-63.105 50.66-105.8 0-75.008-61.02-136.03-136.03-136.03s-136.03 61.02-136.03 136.03c0 17.488 3.3047 34.512 9.8281 50.684l-3.7773 1.5508c-1.8828 0.77734-3.1172 2.6094-3.125 4.6445-0.003907 2.0391 1.2188 3.8789 3.0977 4.6602l26.305 10.969c2.5742 1.082 5.5156-0.14062 6.5898-2.7109l10.969-26.305c0.78516-1.8789 0.35938-4.0508-1.0781-5.4922-1.4414-1.4453-3.6055-1.875-5.4883-1.1016l-5.5508 2.2812c-5.0078-12.504-7.543-25.656-7.543-39.18 0-58.34 47.457-105.8 105.8-105.8 58.34 0 105.8 47.457 105.8 105.8 0 58.34-47.457 105.8-105.8 105.8-0.015625 0-0.60547-0.015625-0.62109-0.015625-0.13281 0-0.26172 0.003906-0.38672 0.015625h-145.1c-2.7812 0-5.0391 2.2578-5.0391 5.0391v20.152c0 2.7812 2.2578 5.0391 5.0391 5.0391h267.02v5.0391c0 2.0352 1.2305 3.875 3.1094 4.6562 0.625 0.25 1.2812 0.37891 1.9297 0.37891 1.3086 0 2.6016-0.51562 3.5625-1.4766l20.152-20.152c1.9688-1.9727 1.9688-5.1562 0-7.125zm-18.996 11.871c-0.71875-1.9102-2.5586-3.2695-4.7188-3.2695h-74.648c6.918-2.8281 13.559-6.1953 19.852-10.078h54.797c2.1602 0 4-1.3594 4.7188-3.2695l8.3086 8.3086z" fill="#3e979a"/>
  <path d="m223.43 264.99 1.4375 8.6445h-16.727c-6.9414 0-12.594 5.6523-12.594 12.594 0 2.832 0.94141 5.4531 2.5234 7.5586-1.582 2.1055-2.5234 4.7266-2.5234 7.5586s0.94141 5.4531 2.5234 7.5586c-1.582 2.1055-2.5234 4.7227-2.5234 7.5547s0.94141 5.4531 2.5234 7.5586c-1.582 2.1055-2.5234 4.7266-2.5234 7.5547 0 6.9414 5.6523 12.594 12.594 12.594h33.738c6.9375 0 13.66-2.0352 19.434-5.8828 4.1172-2.7422 8.9023-4.1914 13.844-4.1914h1c0 2.7812 2.2578 5.0391 5.0391 5.0391h25.191c2.7812 0 5.0391-2.2578 5.0391-5.0391v-70.535c0-2.7812-2.2578-5.0391-5.0391-5.0391h-25.191c-2.7812 0-5.0391 2.2578-5.0391 5.0391v5.0391h-18.066l-7.6133-7.6133-4.6992-18.797c-0.33594-1.3594-1.2344-2.5195-2.4648-3.1953-1.2344-0.67578-2.6953-0.8125-4.0156-0.36328-11.125 3.707-17.797 14.789-15.867 26.363zm9.9336-1.6562c-0.78516-4.707 0.91016-9.2734 4.2383-12.297l3.4375 13.75c0.22266 0.88672 0.67969 1.6914 1.3242 2.3359l10.078 10.078c0.94141 0.94531 2.2266 1.4727 3.5625 1.4727h20.152v45.344h-0.99219c-6.9375 0-13.66 2.0352-19.434 5.8828-4.1172 2.7422-8.9023 4.1914-13.844 4.1914h-33.746c-1.3906 0-2.5195-1.1289-2.5195-2.5195 0-1.3906 1.1289-2.5195 2.5195-2.5195h12.598c2.7812 0 5.0391-2.2578 5.0391-5.0391s-2.2578-5.0391-5.0391-5.0391h-12.594c-1.3906 0-2.5195-1.1289-2.5195-2.5195s1.1289-2.5195 2.5195-2.5195l12.594 0.003906c2.7812 0 5.0391-2.2578 5.0391-5.0391s-2.2578-5.0391-5.0391-5.0391h-12.594c-1.3906 0-2.5195-1.1289-2.5195-2.5195s1.1289-2.5195 2.5195-2.5195l12.594 0.003907c2.7812 0 5.0391-2.2578 5.0391-5.0391s-2.2578-5.0391-5.0391-5.0391h-12.594c-1.3906 0-2.5195-1.1289-2.5195-2.5195 0-1.3906 1.1289-2.5195 2.5195-2.5195l22.668 0.003907c1.4805 0 2.8867-0.64844 3.8438-1.7852 0.95703-1.1328 1.3672-2.625 1.125-4.0859z" fill="#3e979a"/>
  <path d="m279.33 189.36c-0.59375-1.8242-2.1719-3.1523-4.0664-3.4297l-10.191-1.4805-4.5547-9.2344c-1.7031-3.4414-7.3359-3.4414-9.0391 0l-4.5547 9.2344-10.191 1.4805c-1.8945 0.27734-3.4727 1.6055-4.0664 3.4297s-0.10156 3.8281 1.2734 5.1641l7.3711 7.1836-1.7422 10.152c-0.32422 1.8906 0.45313 3.7969 2.0039 4.9258 1.5586 1.1289 3.6055 1.2734 5.3047 0.38281l9.1211-4.7891 9.1133 4.793c0.73438 0.38672 1.543 0.57812 2.3438 0.57812 1.043 0 2.0859-0.32422 2.9609-0.96094 1.5508-1.1289 2.3281-3.0391 2.0039-4.9258l-1.7422-10.152 7.3711-7.1836c1.3828-1.3398 1.875-3.3438 1.2812-5.168z" fill="#3e979a"/>
  <path d="m334.75 214.55c-0.59375-1.8242-2.1719-3.1523-4.0664-3.4297l-10.191-1.4805-4.5547-9.2344c-1.7031-3.4414-7.3359-3.4414-9.0391 0l-4.5547 9.2344-10.191 1.4805c-1.8945 0.27734-3.4727 1.6055-4.0664 3.4297s-0.10156 3.8281 1.2734 5.1641l7.3711 7.1836-1.7422 10.152c-0.32422 1.8906 0.45312 3.7969 2.0039 4.9258 1.5586 1.1289 3.6133 1.2734 5.3047 0.38281l9.1211-4.7891 9.1133 4.793c0.73438 0.38672 1.543 0.57812 2.3438 0.57812 1.043 0 2.0859-0.32422 2.9609-0.96094 1.5508-1.1289 2.3281-3.0391 2.0039-4.9258l-1.7422-10.152 7.3711-7.1836c1.3828-1.3398 1.875-3.3438 1.2812-5.168z" fill="#3e979a"/>
  <path d="m219.85 211.12-10.191-1.4805-4.5547-9.2344c-1.7031-3.4414-7.3359-3.4414-9.0391 0l-4.5547 9.2344-10.191 1.4805c-1.8945 0.27734-3.4727 1.6055-4.0664 3.4297s-0.10156 3.8281 1.2734 5.1641l7.3711 7.1836-1.7422 10.152c-0.32422 1.8906 0.45312 3.7969 2.0039 4.9258 1.5586 1.1289 3.6055 1.2734 5.3047 0.38281l9.1211-4.7891 9.1133 4.793c0.73438 0.38672 1.543 0.57812 2.3438 0.57812 1.043 0 2.0859-0.32422 2.9609-0.96094 1.5508-1.1289 2.3281-3.0391 2.0039-4.9258l-1.7422-10.152 7.3711-7.1836c1.375-1.3398 1.8672-3.3398 1.2734-5.1641-0.58203-1.8281-2.1602-3.1562-4.0586-3.4336z" fill="#3e979a"/>
 </g>
</svg>
