<?xml version="1.0" encoding="UTF-8"?>
<svg width="512pt" height="512pt" version="1.1" viewBox="0 0 512 512" xmlns="http://www.w3.org/2000/svg">
 <g>
  <rect width="512" height="512" fill="#fff"/>
  <path d="m193.12 190.22 15.477 15.477c0.96875-5.4805 3.8711-10.641 8.0625-14.508 10.316-9.6719 27.086-9.9961 37.402-0.32422 0.64453 0.64453 1.2891 1.2891 1.9336 1.9336 4.1914 4.8359 6.7695 10.965 6.7695 17.41 0 1.2891 0 2.5781-0.32422 3.5469-0.64453 6.125-3.2227 11.609-7.7383 16.121-3.8711 3.8711-8.707 6.4492-14.188 7.418l15.477 15.477 18.703-18.703c0.32422-0.32422 0.32422-0.32422 0.64453-0.32422h0.32422 0.64453 0.64453c0.64453 0.32422 1.2891 0.96875 1.2891 1.9336 0 6.125 2.5781 11.609 6.7695 15.801 4.5156 4.5156 10.316 6.7695 16.445 6.7695h0.32422c1.9336 0 3.5469-0.32422 5.4805-0.64453 4.1914-0.96875 8.0625-3.2227 10.965-6.4492 5.1602-5.8047 7.0938-13.543 5.4805-20.957-0.96875-3.8711-2.9023-7.418-5.4805-10.316-1.6133-1.6133-3.5469-3.2227-5.4805-4.1914s-3.8711-1.6133-5.8047-2.2578c-0.96875-0.32422-1.9336-0.32422-2.9023-0.64453h-2.2578c-0.96875 0-1.6133-0.64453-1.9336-1.2891-0.32422-0.64453 0-1.6133 0.32422-2.2578l18.703-18.703-52.238-52.551c-5.8047-5.8047-15.477-5.8047-21.281 0z" fill="#3e979a"/>
  <path d="m374.01 245.36-52.234-52.234-15.477 15.477c5.4805 0.96875 10.641 3.8711 14.508 7.7383 9.6719 10.316 9.9961 27.086 0.32422 37.402-5.1602 5.4805-11.93 8.707-19.348 8.707-7.418 0.32422-14.508-2.5781-19.668-8.0625-3.8711-3.8711-6.4492-8.707-7.418-14.188l-15.797 15.801 18.703 18.703c0.64453 0.64453 0.64453 1.6133 0.32422 2.2578-0.32422 0.64453-0.96875 1.2891-1.9336 1.2891-6.125 0-11.609 2.5781-15.801 6.7695-4.5156 4.5156-6.7695 10.316-6.7695 16.766 0 6.125 2.5781 11.93 7.418 16.445 1.2891 1.2891 2.9023 2.5781 4.8359 3.2227 8.3828 4.5156 19.348 3.2227 26.762-3.5469 4.5156-4.1914 7.0938-9.9961 7.0938-16.121 0-0.96875 0.64453-1.6133 1.2891-1.9336 0.64453-0.32422 1.6133 0 2.2578 0.32422l18.703 18.703 52.234-52.234c2.9023-2.9023 4.5156-6.7695 4.5156-10.641-0.007812-4.1953-1.6211-7.7422-4.5234-10.645z" fill="#3e979a"/>
  <path d="m303.4 306.3c-0.96875 5.4805-3.8711 10.641-8.0625 14.508-10.316 9.6719-27.086 9.9961-37.402 0.32422-5.4805-5.1602-8.707-11.93-8.707-19.348 0-5.4805 1.6133-10.965 4.5156-15.477 0.96875-1.6133 2.2578-2.9023 3.5469-4.1914 3.8711-3.8711 8.707-6.4492 14.188-7.418l-15.477-15.797-18.703 18.703c-0.64453 0.96484-1.6094 0.96484-2.2539 0.64453-0.64453-0.32422-1.2891-0.96875-1.2891-1.9336 0-6.125-2.5781-11.609-6.7695-15.801-4.5156-4.5156-10.316-6.7695-16.766-6.7695h-2.2578c-5.4805 0.64453-10.316 3.2227-14.188 7.0938-6.125 6.4492-7.418 16.121-4.5156 24.184 0 0.32422 0.32422 0.64453 0.32422 0.96875 0 0.32422 0.32422 0.64453 0.32422 0.96875 0.96875 1.9336 2.2578 3.8711 3.8711 5.4805 4.1914 4.5156 9.9961 7.0938 16.121 7.0938 0.96875 0 1.6133 0.64453 1.9336 1.2891 0.32422 0.64453 0 1.6133-0.32422 2.2578l-18.703 18.703 52.234 52.234c5.8047 5.8047 15.477 5.8047 21.281 0l52.234-52.234z" fill="#3e979a"/>
  <path d="m137.99 266.64 52.234 52.234 15.477-15.477c-5.4805-0.96875-10.641-3.8711-14.508-8.0625-9.6719-10.316-9.9961-27.086-0.32422-37.402 5.1602-5.4805 11.93-8.707 19.348-8.707 7.418 0 14.508 2.5781 19.668 8.0625 3.8711 3.8711 6.4492 8.707 7.418 14.188l15.477-15.477-18.703-18.703c-0.64453-0.64453-0.64453-1.6133-0.32422-2.2578 0.32422-0.64453 0.96875-1.2891 1.9336-1.2891 6.125 0 11.609-2.5781 15.801-6.7695 0.64453-0.64453 0.96875-1.2891 1.6133-1.6133 3.5469-4.1914 5.1602-9.3516 5.1602-14.832 0-6.125-2.5781-11.93-7.418-16.445-8.707-8.0625-22.895-8.0625-31.277 0.32422-4.5156 4.1914-7.0938 9.9961-7.0938 16.121 0 0.96875-0.64453 1.6133-1.2891 1.9336-0.64453 0.32422-1.6133 0-2.2578-0.32422l-18.703-18.703-52.23 51.918c-2.9023 2.9023-4.5156 6.4492-4.5156 10.641s1.6133 7.7383 4.5156 10.641z" fill="#3e979a"/>
 </g>
</svg>
