<?xml version="1.0" encoding="UTF-8"?>
<svg width="512pt" height="512pt" version="1.1" viewBox="0 0 512 512" xmlns="http://www.w3.org/2000/svg">
 <g>
  <rect width="512" height="512" fill="#fff"/>
  <path d="m293.48 165.32c4.0312 0 7.457 3.0234 8.2617 6.8516h12.09c-0.80469-10.48-9.6719-18.941-20.355-18.941l-54.207-0.003906v12.09z" fill="#3e979a"/>
  <path d="m251.57 357.16c0 4.4531-3.6094 8.0625-8.0625 8.0625-4.4492 0-8.0586-3.6094-8.0586-8.0625 0-4.4492 3.6094-8.0586 8.0586-8.0586 4.4531 0 8.0625 3.6094 8.0625 8.0586" fill="#3e979a"/>
  <path d="m213.28 126.02h-90.688c-9.6719 0-17.73 8.0625-17.73 17.734v53c0 9.875 8.0625 17.734 17.734 17.734h62.07l16.727 18.137c1.2109 1.2109 2.8203 2.0156 4.4336 2.0156 0.80469 0 1.4102-0.20312 2.2148-0.40234 2.418-0.80469 3.8281-3.2227 3.8281-5.6445v-13.906h1.4102c9.875 0 17.734-7.8594 17.734-17.734v-53.199c0.19922-9.6719-7.8594-17.734-17.734-17.734zm5.8438 70.738c0 3.0234-2.6211 5.6445-5.6445 5.6445h-7.457c-3.4258 0-6.0469 2.6211-6.0469 6.0469v4.6367l-8.0625-8.6641c-1.2109-1.2109-2.8203-2.0156-4.4336-2.0156l-64.887-0.007813c-3.2227 0-5.6445-2.6211-5.6445-5.6445l0.003907-53c0-3.0234 2.6211-5.6445 5.6445-5.6445h90.688c3.2227 0 5.6445 2.6211 5.6445 5.6445l-0.007812 53.004z" fill="#3e979a"/>
  <path d="m191.71 160.88h-10.277c-0.60547 0-1.2109 0.20313-1.6133 0.40234l-1.0078-1.0078c-1.2109-1.2109-2.0156-2.418-2.6211-4.0312-0.60547-1.4102-1.0078-3.0234-1.0078-4.6367v-4.0312c0-1.4102-0.80469-2.8203-2.0156-3.4258l-1.4102-0.80469c-0.60547-0.40234-1.4102-0.80469-2.2148-1.0078-2.418-0.60547-5.2383 0.20312-7.0547 2.2148-1.8125 1.8125-2.6211 4.0312-2.8203 6.4492v0.40234c-0.20312 3.0234 0 5.8438 0.40234 8.8672h-10.277c-1.4102 0-2.6211 0.40234-3.8281 1.0078-2.6211 1.4102-4.2305 4.2305-4.2305 7.2539 0 0.60547 0 1.6133 3.6289 17.734 0.40234 2.2148 1.6133 4.0312 3.0234 5.6445 2.2148 2.2148 5.2383 3.4258 8.2617 3.4258h17.734c1.2109 0 2.418-0.20312 3.4258-0.40234 0.60547 1.4102 2.0156 2.2148 3.6289 2.2148h10.277c2.2148 0 4.0312-1.8125 4.0312-4.0312v-28.215c-0.003906-2.2109-1.8203-4.0234-4.0352-4.0234zm-35.066 26.398c-1.0078 0-1.8125-0.40234-2.418-1.0078-0.40234-0.40234-0.80469-1.0078-1.0078-1.6133-2.2148-9.4727-3.2227-14.711-3.4258-16.121l0.20312-0.20312h15.113c1.2109 0 2.418-0.60547 3.0234-1.4102 0.80469-1.0078 1.0078-2.2148 0.80469-3.2227l-0.40234-2.418c-0.20312-1.4102-0.40234-2.8203-0.60547-4.2305 0.20312 0.80469 0.40234 1.4102 0.80469 2.2148 1.0078 2.418 2.418 4.6367 4.4336 6.6484l4.4336 4.4336v16.523c-1.0078 0.20312-2.0156 0.40234-3.0234 0.40234z" fill="#3e979a"/>
  <path d="m385.98 180.23h-117.29c-11.688 0-21.16 9.4727-21.16 21.16v68.52c0 11.688 9.4727 21.16 21.16 21.16h3.6289v19.949c0 2.418 1.6133 4.6367 3.8281 5.6445 0.80469 0.20312 1.4102 0.40234 2.2148 0.40234 1.6133 0 3.2227-0.60547 4.4336-2.0156l22.168-23.98h81.012c11.688 0 21.16-9.4727 21.16-21.16v-68.52c0.003906-11.688-9.4688-21.16-21.156-21.16zm9.0664 89.68c0 5.0391-4.0312 9.0703-9.0703 9.0703l-83.629-0.003906c-1.6133 0-3.2227 0.80469-4.4336 2.0156l-13.301 14.508v-10.48c0-3.4258-2.6211-6.0469-6.0469-6.0469h-9.6719c-5.0391 0-9.0703-4.0312-9.0703-9.0703v-68.52c0-5.0391 4.0312-9.0703 9.0703-9.0703h117.29c5.0391 0 9.0703 4.0312 9.0703 9.0703v68.527z" fill="#3e979a"/>
  <path d="m355.15 224.96c-1.4102-0.80469-2.8203-1.2109-4.4336-1.2109h-14.711c0.60547-4.2305 0.80469-8.4648 0.80469-12.695v-0.40234c-0.20312-2.8203-1.2109-5.6445-3.4258-7.6562-2.0156-2.2148-5.2383-3.0234-8.0625-2.418-1.0078 0.20312-1.8125 0.60547-2.6211 1.0078l-1.8125 1.0078c-1.2109 0.80469-2.0156 2.0156-2.0156 3.4258v5.0391c0 2.2148-0.40234 4.4336-1.2109 6.4492-0.80469 2.0156-2.0156 4.0312-3.6289 5.6445l-2.0156 2.0156c-0.60547-0.40234-1.4102-0.80469-2.2148-0.80469h-13.301c-2.2148 0-4.0312 1.8125-4.0312 4.0312v36.477c0 2.2148 1.8125 4.0312 4.0312 4.0312h13.301c1.8125 0 3.4258-1.4102 3.8281-3.0234 1.8125 0.40234 3.4258 0.60547 5.2383 0.60547h22.973c3.6289 0 7.2539-1.4102 9.875-4.0312 1.8125-1.8125 3.0234-4.2305 3.6289-6.6484 4.6367-20.758 4.6367-22.168 4.6367-22.773 0.20703-3.2344-1.6055-6.2539-4.832-8.0703zm-7.4531 29.422c-0.20312 1.0078-0.80469 2.0156-1.6133 2.8203-1.0078 1.0078-2.6211 1.6133-4.0312 1.6133h-22.973c-1.8125 0-3.4258-0.20312-5.2383-0.80469l-0.003906-22.773 6.0469-6.0469c2.418-2.418 4.2305-5.0391 5.4414-8.0625 1.2109-3.0234 1.8125-6.2461 1.8125-9.6719v-2.8203s0.20312 0 0.40234 0.20312c0.60547 0.60547 1.0078 1.6133 1.0078 2.418v0.40234c0.20312 4.2305-0.20312 8.4648-0.80469 12.695l-0.60547 3.0234c-0.20312 1.2109 0 2.418 0.80469 3.2227 0.80469 1.0078 1.8125 1.4102 3.0234 1.4102h19.547c0.20312 0 0.40234 0 0.60547 0.20312 0.40234 0.20312 0.80469 0.60547 0.80469 1.2109 0.003906 1.0078-1.207 7.2539-4.2266 20.957z" fill="#3e979a"/>
  <path d="m301.95 306.18v24.988h-116.68v-104.19l-4.0312-4.4336h-8.0625v142.88c0 11.285 9.2695 20.555 20.555 20.555h99.957c11.285 0 20.555-9.2695 20.555-20.555v-66.301h-5.8398zm0 59.246c0 4.6367-3.8281 8.4648-8.4648 8.4648h-99.957c-4.6367 0-8.4648-3.8281-8.4648-8.4648v-26.199h116.68v26.199z" fill="#3e979a"/>
 </g>
</svg>
